<svg xmlns="http://www.w3.org/2000/svg" viewBox="0 0 619.97 188.95"><defs><style>.cls-1{fill:#ff6701;}</style></defs><g id="Layer_2" data-name="Layer 2"><g id="Layer_1-2" data-name="Layer 1"><path class="cls-1" d="M220.53,88.69a3.15,3.15,0,0,1-1.11-2.4V4.9a3.15,3.15,0,0,1,1.11-2.4,3.81,3.81,0,0,1,2.64-1h42q19.41,0,30.56,7.82t11.16,23q0,15.12-11.09,22.5t-30.63,7.37h-9.7V86.29a3.15,3.15,0,0,1-1.11,2.4,3.79,3.79,0,0,1-2.63,1H223.17A3.8,3.8,0,0,1,220.53,88.69Zm43.94-49.77a6.54,6.54,0,0,0,4.43-1.7,6.43,6.43,0,0,0,1.94-5.11,8.51,8.51,0,0,0-1.52-5,5.54,5.54,0,0,0-4.85-2.14h-9.7v14Z"/><path class="cls-1" d="M312.84,82.26q-12.34-8.7-13.17-25.33c-.09-2.26-.14-5.92-.14-11s.05-8.86.14-11.21A32.25,32.25,0,0,1,306,16.11,36.2,36.2,0,0,1,322.12,4.27a72.36,72.36,0,0,1,47.68,0A36.29,36.29,0,0,1,386,16.11a32.25,32.25,0,0,1,6.31,18.65q.27,7.05.27,11.21c0,2.77-.09,6.43-.27,11q-.84,16.63-13.17,25.33T346,91Q325.17,91,312.84,82.26Zm40.54-18.4q2.7-2.52,2.84-7.68c.18-4.87.28-8.44.28-10.71,0-2.44-.1-5.92-.28-10.46q-.14-5.16-2.91-7.69a12,12,0,0,0-14.69,0q-2.78,2.54-2.91,7.69c-.1,2.27-.14,5.75-.14,10.46s0,8.27.14,10.71q.14,5.16,2.84,7.68a12.17,12.17,0,0,0,14.83,0Z"/><path class="cls-1" d="M391.15,88.69a3.11,3.11,0,0,1-1.11-2.4V4.9a3.11,3.11,0,0,1,1.11-2.4,3.76,3.76,0,0,1,2.63-1h42q19.41,0,30.57,7.82t11.15,23q0,15.12-11.09,22.5t-30.63,7.37h-9.7V86.29a3.15,3.15,0,0,1-1.11,2.4,3.77,3.77,0,0,1-2.63,1H393.78A3.75,3.75,0,0,1,391.15,88.69Zm43.93-49.77a6.58,6.58,0,0,0,4.44-1.7,6.46,6.46,0,0,0,1.94-5.11,8.45,8.45,0,0,0-1.53-5,5.54,5.54,0,0,0-4.85-2.14h-9.7v14Z"/><path class="cls-1" d="M230.1,180.58q-12.34-8.39-13.17-25.77-.13-3.41-.14-11.09t.14-11.34q.82-16.87,13.44-25.51t33-8.64a73.79,73.79,0,0,1,22.94,3.41,38.6,38.6,0,0,1,17.05,10.64q6.57,7.25,6.72,18.21a2.53,2.53,0,0,1-.9,1.95,3.09,3.09,0,0,1-2.15.82H278.74a5.61,5.61,0,0,1-3.25-.75,6.33,6.33,0,0,1-1.87-2.9,10.48,10.48,0,0,0-4-5.29,12.15,12.15,0,0,0-6.38-1.52c-3.23,0-5.73.78-7.48,2.34s-2.68,4.18-2.78,7.87c-.09,2.27-.13,5.75-.13,10.46s0,8.27.13,10.71c.1,3.7,1,6.32,2.78,7.87s4.25,2.33,7.48,2.33q7.9,0,10.4-6.8a5.69,5.69,0,0,1,1.73-2.9,5.9,5.9,0,0,1,3.39-.75H307a3.09,3.09,0,0,1,2.15.82,2.53,2.53,0,0,1,.9,1.95q-.15,11-6.72,18.21a38.69,38.69,0,0,1-17.05,10.64,73.8,73.8,0,0,1-22.94,3.4Q242.44,189,230.1,180.58Z"/><path class="cls-1" d="M328.5,186.69a3.15,3.15,0,0,1-1.11-2.4V159.47L296.21,103.4a2.23,2.23,0,0,1-.28-1.13,2.57,2.57,0,0,1,.9-2,3.12,3.12,0,0,1,2.15-.82H325a6.26,6.26,0,0,1,3.81,1.08,6.88,6.88,0,0,1,2,2.07L344.72,128l13.86-25.33a6.76,6.76,0,0,1,2-2.07,6.23,6.23,0,0,1,3.81-1.08h26.05a3.1,3.1,0,0,1,2.15.82,2.57,2.57,0,0,1,.9,2,2.33,2.33,0,0,1-.27,1.13L362,159.47v24.82a3.15,3.15,0,0,1-1.11,2.4,3.79,3.79,0,0,1-2.63,1H331.13A3.79,3.79,0,0,1,328.5,186.69Z"/><path class="cls-1" d="M392.53,180.58q-12.33-8.39-13.16-25.77c-.1-2.27-.14-6-.14-11.09s0-9,.14-11.34q.83-16.87,13.44-25.51t33-8.64a73.73,73.73,0,0,1,22.93,3.41,38.54,38.54,0,0,1,17,10.64q6.59,7.25,6.72,18.21a2.53,2.53,0,0,1-.9,1.95,3,3,0,0,1-2.14.82H441.18a5.64,5.64,0,0,1-3.26-.75,6.5,6.5,0,0,1-1.87-2.9,10.37,10.37,0,0,0-4-5.29,12.11,12.11,0,0,0-6.37-1.52c-3.24,0-5.73.78-7.49,2.34s-2.68,4.18-2.77,7.87c-.09,2.27-.14,5.75-.14,10.46s.05,8.27.14,10.71c.09,3.7,1,6.32,2.77,7.87s4.25,2.33,7.49,2.33q7.89,0,10.39-6.8a5.62,5.62,0,0,1,1.74-2.9,5.9,5.9,0,0,1,3.39-.75h28.28a3,3,0,0,1,2.14.82,2.53,2.53,0,0,1,.9,1.95q-.13,11-6.72,18.21a38.63,38.63,0,0,1-17,10.64A73.73,73.73,0,0,1,425.8,189Q404.86,189,392.53,180.58Z"/><path class="cls-1" d="M469.59,186.69a3.15,3.15,0,0,1-1.11-2.4V102.9a3.15,3.15,0,0,1,1.11-2.4,3.81,3.81,0,0,1,2.64-1H500a3.8,3.8,0,0,1,2.63,1,3.15,3.15,0,0,1,1.11,2.4v59h38.39a3.78,3.78,0,0,1,2.63,1,3.15,3.15,0,0,1,1.11,2.4v19a3.15,3.15,0,0,1-1.11,2.4,3.77,3.77,0,0,1-2.63,1H472.23A3.8,3.8,0,0,1,469.59,186.69Z"/><path class="cls-1" d="M541.39,186.69a3.15,3.15,0,0,1-1.11-2.4V102.9a3.15,3.15,0,0,1,1.11-2.4,3.78,3.78,0,0,1,2.63-1h71.1a3.78,3.78,0,0,1,2.63,1,3.15,3.15,0,0,1,1.11,2.4v17.76a3.15,3.15,0,0,1-1.11,2.4,3.77,3.77,0,0,1-2.63,1H573.54V132h38.53a3.82,3.82,0,0,1,2.64,1,3.15,3.15,0,0,1,1.1,2.39v16.38a3.15,3.15,0,0,1-1.1,2.4,3.82,3.82,0,0,1-2.64,1H573.54v7.93h42.69a3.78,3.78,0,0,1,2.63,1,3.15,3.15,0,0,1,1.11,2.4v17.76a3.15,3.15,0,0,1-1.11,2.4,3.77,3.77,0,0,1-2.63,1H544A3.77,3.77,0,0,1,541.39,186.69Z"/><rect class="cls-1" width="188" height="188"/></g></g></svg>